<svg width="512" height="512" viewBox="0 0 512 512" fill="none" xmlns="http://www.w3.org/2000/svg">
<path d="M33 286.934C36.2512 222.426 71.3259 164.006 118.311 121.227C169.45 74.615 238.034 47.4837 307.583 51.1474C347.509 53.2503 390.002 65.8475 417.495 96.5112C427.505 107.675 441.126 131.101 435.278 146.474L433.875 147.256C428.811 142.386 426.002 135.445 420.737 130.659C366.151 81.0443 276.044 108.779 230.969 157.81C199.426 192.121 182.753 230.136 184.044 276.031C184.199 281.75 184.577 287.459 185.18 293.141C186.282 297.987 187.292 302.909 188.554 307.672C209.048 384.931 293.818 423.725 368.579 407.394C386.943 403.381 399.353 398.506 416.093 390.613C394.617 413.084 367.278 430.016 338.692 441.8C177.788 508.128 13.9856 395.234 92.4169 216.44C74.2594 226.128 56.5837 247.482 46.5534 265.394C42.4537 272.715 38.7103 284.094 34.0162 290.937L33.0234 290.309L33 286.934Z" fill="#1088F4"></path>
<path d="M118.311 121.228C177.038 68.6571 238.034 47.4839 307.583 51.1476C347.509 53.2504 390.002 65.8476 417.495 96.5114C427.505 107.675 441.126 131.101 435.279 146.474L433.875 147.256C428.811 142.386 426.497 136.589 420.737 130.659C382.664 91.461 314.635 109 314.635 109C314.635 109 281.135 91.1431 184.635 117C131.619 131.206 63.6353 188.5 63.6353 188.5C63.6353 188.5 73.8805 161 118.311 121.228Z" fill="url(#paint0_linear_2288_3886)"></path>
<path d="M455.103 273.819C460.345 272.937 473.205 271.749 477.217 276.172C479.37 278.534 478.733 284.506 477.806 287.516C466.719 323.497 439.402 354.05 407.323 373.053C371.223 393.847 332.682 398.366 293.141 387.837C280.209 384.144 271.522 380.281 260.325 373.119C314.737 332.384 386.501 283.822 455.103 273.819Z" fill="#1088F4"></path>
<path d="M295.15 197.94C336.861 195.142 348.108 219.412 334.444 255.774C361.973 255.614 377.36 255.867 368.48 288.603C364.6 290.778 350.725 299.45 347.458 298.419C346.847 295.175 346.322 292.728 345.479 289.541C337.739 282.303 318.526 285.819 310.785 291.275C300.748 298.334 290.016 311.656 281.499 320.881C270.326 333.041 258.977 345.041 247.457 356.872C245.233 358.456 246.098 357.997 243.453 358.747L241.844 357.837C238.233 344.366 295.173 253.761 294.622 235.093C293.857 209.216 221.361 234.747 216.61 231.018C217.987 227.145 224.608 222.486 228.172 220.176C249.014 206.667 270.583 200.244 295.15 197.94Z" fill="#1088F4"></path>
<path d="M348.247 159.569C360.686 156.437 373.3 164.019 376.371 176.474C379.441 188.928 371.798 201.505 359.329 204.514C346.945 207.504 334.474 199.924 331.424 187.556C328.374 175.186 335.893 162.678 348.247 159.569Z" fill="#1088F4"></path>
<defs>
<linearGradient id="paint0_linear_2288_3886" x1="250.635" y1="157" x2="250.635" y2="-3" gradientUnits="userSpaceOnUse">
<stop stop-color="#0FDAF1"></stop>
<stop offset="1" stop-color="#F2FEFF"></stop>
</linearGradient>
</defs>
</svg>