<svg width="1587" height="411" viewBox="0 0 1587 411" fill="none" xmlns="http://www.w3.org/2000/svg">
<path d="M1426.86 129.97C1439.27 129.879 1451.67 129.919 1464.09 130.092C1493.44 174.322 1521.51 219.18 1551.18 263.471L1551.23 129.851C1562.67 130.069 1574.51 129.939 1585.99 129.954L1586.07 266.321C1586.08 273.643 1586.53 316.083 1585.56 320.883C1573.99 320.443 1560.81 320.808 1549.11 320.911C1519.14 278.293 1490.37 231.014 1461.22 187.467L1461.29 320.939C1449.79 320.855 1438.28 320.874 1426.77 321.005L1426.86 129.97Z" fill="url(#paint0_linear_2288_3895)"></path>
<path d="M526.763 271.008C543.491 285.774 558.948 293.208 581.671 292.918C597.15 292.721 614.876 286.299 613.567 267.811C612.257 249.305 586.924 245.78 573.007 241.477C543.772 233.818 514.112 223.74 512.592 187.908C510.926 148.625 543.558 127.531 579.305 127.599C606.271 127.649 626.276 133.157 645.799 152.378C639.272 161.149 632.669 169.862 625.99 178.517C616.003 170.188 607.42 164.427 594.156 161.859C576.539 158.449 551.997 160.425 548.221 182.285C546.367 195.376 563.932 202.837 573.862 205.749C597.845 212.782 626.148 216.764 641.453 238.88C649.176 250.046 651.162 266.733 648.572 279.914C645.95 293.03 638.304 304.599 627.269 312.155C620.207 317.489 616.011 318.905 607.857 321.539L595.855 324.268C589.641 324.718 584.851 325.121 578.615 324.868C547.382 324.54 528.985 318.868 506.338 297.324C513.148 288.971 520.153 279.586 526.763 271.008Z" fill="url(#paint1_linear_2288_3895)"></path>
<path d="M1081.05 129.889L1120.14 129.977C1134.32 178.594 1154.19 232.28 1170.06 281.443C1184.41 232.927 1204.01 178.128 1220.21 129.948L1257.85 130.076C1254.53 140.157 1250.97 150.163 1247.2 160.086L1190.57 320.836L1147.95 320.939C1126.95 257.743 1103.28 192.811 1081.05 129.889Z" fill="url(#paint2_linear_2288_3895)"></path>
<path d="M764.513 180.705L798.479 180.745L798.423 227.049L798.414 320.893L765.507 320.799C765.47 315.661 765.273 310.299 765.142 305.152C764.007 306.558 762.826 307.936 761.588 309.258C733.889 339.174 676.899 325.14 672.418 282.68C670.8 267.343 670.975 253.73 670.988 238.383L671.033 180.704C681.93 181.133 694.244 180.823 705.263 180.76C705.497 200.014 705.523 219.27 705.342 238.524C705.287 261.23 700.46 293.358 732.656 293.799C768.77 294.296 764.682 260.133 764.645 234.896L764.513 180.705Z" fill="url(#paint3_linear_2288_3895)"></path>
<path d="M992.57 114.317C1002.03 113.249 1011.26 114.434 1020.54 116.09L1020.55 147.164C988.857 139.031 980.063 150.265 980.748 180.656C993.751 180.809 1006.74 180.802 1019.74 180.635L1019.78 211.696L980.513 211.504L980.71 306.033C980.757 310.983 980.757 315.943 980.72 320.893C969.451 320.602 957.638 320.939 946.332 321.08L946.463 211.773L924.207 211.609L924.16 180.723L946.501 180.854C945.854 146.042 952.426 119.753 992.57 114.317Z" fill="url(#paint4_linear_2288_3895)"></path>
<path d="M891.132 178.112C895.773 177.886 901.604 178.495 906.329 178.829L906.404 212.205C857.045 207.186 856.342 230.94 856.426 270.708L856.538 320.78C850.829 320.874 826.192 321.736 822.451 320.03C821.729 274.177 822.432 226.627 822.507 180.616L854.832 180.883L855.47 201.18C856.885 199.036 858.357 196.928 859.876 194.854C868.257 183.599 877.932 179.943 891.132 178.112Z" fill="url(#paint5_linear_2288_3895)"></path>
<path fill-rule="evenodd" clip-rule="evenodd" d="M1314.84 129.891L1270.92 129.957L1270.99 321.043C1274.13 321.022 1277.29 320.994 1280.46 320.966L1280.46 320.966L1280.47 320.966C1288.78 320.893 1297.13 320.82 1305.37 320.874L1305.59 255.558C1308.66 255.573 1311.76 255.597 1314.86 255.621C1323.93 255.692 1333.1 255.763 1342 255.596C1361.79 254.143 1378.51 249.811 1391.98 234.005C1413.09 209.221 1411.58 166.107 1385.64 145.188C1366.4 129.596 1343.97 129.729 1320.95 129.866C1318.91 129.878 1316.88 129.89 1314.84 129.891ZM1314.23 162.551C1311.15 162.634 1308.23 162.714 1305.55 162.724L1305.49 223.486C1308.42 223.521 1311.47 223.623 1314.57 223.728C1331.58 224.298 1350.46 224.931 1362.95 214.935C1373.31 203.149 1375.29 181.89 1362.8 171.023C1351.88 161.526 1330.82 162.099 1314.23 162.551Z" fill="url(#paint6_linear_2288_3895)"></path>
<path d="M0 236.189C3.25125 171.681 38.3259 113.261 85.3106 70.4826C136.45 23.8701 205.034 -3.26117 274.583 0.402577C314.509 2.50539 357.002 15.1026 384.495 45.7663C394.505 56.9301 408.126 80.3563 402.278 95.7295L400.875 96.5114C395.811 91.6411 393.002 84.6998 387.737 79.9138C333.151 30.2995 243.044 58.0345 197.969 107.065C166.426 141.376 149.753 179.391 151.044 225.286C151.199 231.005 151.577 236.714 152.18 242.396C153.282 247.243 154.292 252.164 155.554 256.927C176.048 334.186 260.818 372.98 335.579 356.649C353.943 352.636 366.353 347.761 383.093 339.868C361.617 362.34 334.278 379.271 305.692 391.055C144.788 457.383 -19.0144 344.489 59.4169 165.695C41.2594 175.383 23.5837 196.738 13.5534 214.649C9.45374 221.97 5.71031 233.349 1.01625 240.193L0.0234318 239.564L0 236.189Z" fill="#1088F4"></path>
<path d="M85.3107 70.4827C144.038 17.9122 205.034 -3.26101 274.583 0.402741C314.509 2.50555 357.002 15.1027 384.495 45.7665C394.505 56.9302 408.126 80.3565 402.279 95.7296L400.875 96.5115C395.811 91.6412 393.497 85.8439 387.737 79.914C349.664 40.7161 281.635 58.2553 281.635 58.2553C281.635 58.2553 248.135 40.3982 151.635 66.2553C98.6189 80.461 30.6353 137.755 30.6353 137.755C30.6353 137.755 40.8805 110.255 85.3107 70.4827Z" fill="url(#paint7_linear_2288_3895)"></path>
<path d="M422.103 223.074C427.345 222.192 440.205 221.004 444.217 225.427C446.37 227.789 445.733 233.761 444.806 236.771C433.719 272.752 406.402 303.305 374.323 322.308C338.223 343.102 299.682 347.621 260.141 337.093C247.209 333.399 238.522 329.536 227.325 322.374C281.737 281.639 353.501 233.077 422.103 223.074Z" fill="#1088F4"></path>
<path d="M262.15 147.195C303.861 144.397 315.108 168.667 301.444 205.029C328.973 204.869 344.36 205.123 335.48 237.858C331.6 240.033 317.725 248.705 314.458 247.674C313.847 244.43 313.322 241.983 312.479 238.796C304.739 231.558 285.526 235.074 277.785 240.53C267.748 247.589 257.016 260.911 248.499 270.136C237.326 282.296 225.977 294.296 214.457 306.127C212.233 307.711 213.098 307.252 210.453 308.002L208.844 307.093C205.233 293.621 262.173 203.016 261.622 184.349C260.857 158.471 188.361 184.002 183.61 180.273C184.987 176.4 191.608 171.741 195.172 169.431C216.014 155.923 237.583 149.499 262.15 147.195Z" fill="#1088F4"></path>
<path d="M315.247 108.824C327.686 105.693 340.3 113.274 343.371 125.729C346.441 138.183 338.798 150.76 326.329 153.769C313.945 156.759 301.474 149.179 298.424 136.811C295.374 124.442 302.893 111.933 315.247 108.824Z" fill="#1088F4"></path>
<defs>
<linearGradient id="paint0_linear_2288_3895" x1="506.338" y1="219.557" x2="1586.18" y2="219.557" gradientUnits="userSpaceOnUse">
<stop stop-color="#1064F3"></stop>
<stop offset="1" stop-color="#54E5F5"></stop>
</linearGradient>
<linearGradient id="paint1_linear_2288_3895" x1="506.338" y1="219.557" x2="1586.18" y2="219.557" gradientUnits="userSpaceOnUse">
<stop stop-color="#1064F3"></stop>
<stop offset="1" stop-color="#54E5F5"></stop>
</linearGradient>
<linearGradient id="paint2_linear_2288_3895" x1="506.338" y1="219.557" x2="1586.18" y2="219.557" gradientUnits="userSpaceOnUse">
<stop stop-color="#1064F3"></stop>
<stop offset="1" stop-color="#54E5F5"></stop>
</linearGradient>
<linearGradient id="paint3_linear_2288_3895" x1="506.338" y1="219.557" x2="1586.18" y2="219.557" gradientUnits="userSpaceOnUse">
<stop stop-color="#1064F3"></stop>
<stop offset="1" stop-color="#54E5F5"></stop>
</linearGradient>
<linearGradient id="paint4_linear_2288_3895" x1="506.338" y1="219.557" x2="1586.18" y2="219.557" gradientUnits="userSpaceOnUse">
<stop stop-color="#1064F3"></stop>
<stop offset="1" stop-color="#54E5F5"></stop>
</linearGradient>
<linearGradient id="paint5_linear_2288_3895" x1="506.338" y1="219.557" x2="1586.18" y2="219.557" gradientUnits="userSpaceOnUse">
<stop stop-color="#1064F3"></stop>
<stop offset="1" stop-color="#54E5F5"></stop>
</linearGradient>
<linearGradient id="paint6_linear_2288_3895" x1="506.338" y1="219.557" x2="1586.18" y2="219.557" gradientUnits="userSpaceOnUse">
<stop stop-color="#1064F3"></stop>
<stop offset="1" stop-color="#54E5F5"></stop>
</linearGradient>
<linearGradient id="paint7_linear_2288_3895" x1="217.635" y1="106.255" x2="217.635" y2="-53.7449" gradientUnits="userSpaceOnUse">
<stop stop-color="#0FDAF1"></stop>
<stop offset="1" stop-color="#F2FEFF"></stop>
</linearGradient>
</defs>
</svg>